<mxfile host="app.diagrams.net" modified="2023-01-27T21:45:13.764Z" agent="5.0 (Windows NT 10.0; Win64; x64) AppleWebKit/537.36 (KHTML, like Gecko) Chrome/109.0.0.0 Safari/537.36" etag="OmO76HsTsO1Resr7M3Ph" version="20.8.13" type="github">
  <diagram name="Page-1" id="YuPDwLM84174g-vWchxr">
    <mxGraphModel dx="1036" dy="533" grid="1" gridSize="10" guides="1" tooltips="1" connect="1" arrows="1" fold="1" page="1" pageScale="1" pageWidth="850" pageHeight="1100" math="0" shadow="0">
      <root>
        <mxCell id="0" />
        <mxCell id="1" parent="0" />
        <mxCell id="1ogEtF_ThNzdnisCqHXy-1" value="start" style="rounded=1;whiteSpace=wrap;html=1;arcSize=50;" vertex="1" parent="1">
          <mxGeometry x="320" y="60" width="140" height="70" as="geometry" />
        </mxCell>
        <mxCell id="1ogEtF_ThNzdnisCqHXy-3" value="input i" style="shape=parallelogram;perimeter=parallelogramPerimeter;whiteSpace=wrap;html=1;fixedSize=1;" vertex="1" parent="1">
          <mxGeometry x="330" y="180" width="120" height="60" as="geometry" />
        </mxCell>
        <mxCell id="1ogEtF_ThNzdnisCqHXy-4" value="for every sum" style="rounded=0;whiteSpace=wrap;html=1;" vertex="1" parent="1">
          <mxGeometry x="330" y="300" width="120" height="60" as="geometry" />
        </mxCell>
        <mxCell id="1ogEtF_ThNzdnisCqHXy-5" value="add sum&amp;nbsp; with i squared" style="rhombus;whiteSpace=wrap;html=1;" vertex="1" parent="1">
          <mxGeometry x="340" y="415" width="100" height="110" as="geometry" />
        </mxCell>
        <mxCell id="1ogEtF_ThNzdnisCqHXy-6" value="print sum" style="rounded=0;whiteSpace=wrap;html=1;" vertex="1" parent="1">
          <mxGeometry x="520" y="440" width="120" height="60" as="geometry" />
        </mxCell>
        <mxCell id="1ogEtF_ThNzdnisCqHXy-7" value="" style="strokeWidth=2;html=1;shape=mxgraph.flowchart.annotation_2;align=left;labelPosition=right;pointerEvents=1;rotation=-180;" vertex="1" parent="1">
          <mxGeometry x="160" y="420" width="50" height="100" as="geometry" />
        </mxCell>
        <mxCell id="1ogEtF_ThNzdnisCqHXy-8" value="while loop condition" style="text;html=1;align=center;verticalAlign=middle;resizable=0;points=[];autosize=1;strokeColor=none;fillColor=none;" vertex="1" parent="1">
          <mxGeometry x="60" y="450" width="120" height="30" as="geometry" />
        </mxCell>
        <mxCell id="1ogEtF_ThNzdnisCqHXy-9" value="" style="strokeWidth=2;html=1;shape=mxgraph.flowchart.annotation_2;align=left;labelPosition=right;pointerEvents=1;rotation=-180;" vertex="1" parent="1">
          <mxGeometry x="200" y="280" width="50" height="100" as="geometry" />
        </mxCell>
        <mxCell id="1ogEtF_ThNzdnisCqHXy-10" value="for loop condition" style="text;html=1;align=center;verticalAlign=middle;resizable=0;points=[];autosize=1;strokeColor=none;fillColor=none;" vertex="1" parent="1">
          <mxGeometry x="105" y="315" width="110" height="30" as="geometry" />
        </mxCell>
        <mxCell id="1ogEtF_ThNzdnisCqHXy-11" value="" style="endArrow=classic;html=1;rounded=0;" edge="1" parent="1">
          <mxGeometry width="50" height="50" relative="1" as="geometry">
            <mxPoint x="390" y="130" as="sourcePoint" />
            <mxPoint x="389.5" y="180" as="targetPoint" />
          </mxGeometry>
        </mxCell>
        <mxCell id="1ogEtF_ThNzdnisCqHXy-12" value="" style="endArrow=classic;html=1;rounded=0;exitX=0.5;exitY=1;exitDx=0;exitDy=0;" edge="1" parent="1" source="1ogEtF_ThNzdnisCqHXy-3">
          <mxGeometry width="50" height="50" relative="1" as="geometry">
            <mxPoint x="389.5" y="250" as="sourcePoint" />
            <mxPoint x="389.5" y="300" as="targetPoint" />
          </mxGeometry>
        </mxCell>
        <mxCell id="1ogEtF_ThNzdnisCqHXy-13" value="" style="endArrow=classic;html=1;rounded=0;" edge="1" parent="1">
          <mxGeometry width="50" height="50" relative="1" as="geometry">
            <mxPoint x="389.5" y="360" as="sourcePoint" />
            <mxPoint x="389.5" y="420" as="targetPoint" />
          </mxGeometry>
        </mxCell>
        <mxCell id="1ogEtF_ThNzdnisCqHXy-14" value="" style="endArrow=classic;html=1;rounded=0;" edge="1" parent="1">
          <mxGeometry width="50" height="50" relative="1" as="geometry">
            <mxPoint x="440" y="470" as="sourcePoint" />
            <mxPoint x="510" y="470" as="targetPoint" />
          </mxGeometry>
        </mxCell>
      </root>
    </mxGraphModel>
  </diagram>
</mxfile>
